<?xml version="1.0" encoding="UTF-8" standalone="no"?>
<!-- Created with Inkscape (http://www.inkscape.org/) -->

<svg
   width="6.3393264in"
   height="1.8636698in"
   viewBox="0 0 25.357305 7.4546792"
   version="1.1"
   id="svg658"
   xml:space="preserve"
   inkscape:version="1.2.2 (b0a8486541, 2022-12-01)"
   sodipodi:docname="pie-slices.svg"
   inkscape:export-filename="pie-slices.png"
   inkscape:export-xdpi="300"
   inkscape:export-ydpi="300"
   xmlns:inkscape="http://www.inkscape.org/namespaces/inkscape"
   xmlns:sodipodi="http://sodipodi.sourceforge.net/DTD/sodipodi-0.dtd"
   xmlns="http://www.w3.org/2000/svg"
   xmlns:svg="http://www.w3.org/2000/svg"><sodipodi:namedview
     id="namedview660"
     pagecolor="#ffffff"
     bordercolor="#000000"
     borderopacity="0.25"
     inkscape:showpageshadow="2"
     inkscape:pageopacity="0.0"
     inkscape:pagecheckerboard="0"
     inkscape:deskcolor="#d1d1d1"
     inkscape:document-units="in"
     showgrid="true"
     inkscape:zoom="1.829812"
     inkscape:cx="-24.865943"
     inkscape:cy="231.71779"
     inkscape:window-width="3790"
     inkscape:window-height="2111"
     inkscape:window-x="50"
     inkscape:window-y="0"
     inkscape:window-maximized="1"
     inkscape:current-layer="layer1"><inkscape:grid
       type="xygrid"
       id="grid779"
       units="in"
       spacingx="0.2"
       originx="-6.7971304"
       originy="-1.5276548"
       spacingy="0.2" /></sodipodi:namedview><defs
     id="defs655"><inkscape:path-effect
       effect="fill_between_many"
       method="originald"
       linkedpaths="#path1578,0,1"
       id="path-effect3269"
       join="true"
       close="true"
       autoreverse="true"
       is_visible="true"
       lpeversion="0" /><inkscape:path-effect
       effect="fill_between_many"
       method="originald"
       linkedpaths="#path1229,0,1"
       id="path-effect1282"
       join="true"
       close="true"
       autoreverse="true"
       is_visible="true"
       lpeversion="0" /><inkscape:path-effect
       effect="fill_between_many"
       method="originald"
       linkedpaths="#circle619,0,1"
       id="path-effect1286"
       is_visible="true"
       lpeversion="0"
       join="true"
       close="true"
       autoreverse="true" /><inkscape:path-effect
       effect="fill_between_many"
       method="originald"
       linkedpaths="#path1380,0,1"
       id="path-effect1383"
       is_visible="true"
       lpeversion="0"
       join="true"
       close="true"
       autoreverse="true" /><inkscape:path-effect
       effect="fill_between_many"
       method="originald"
       linkedpaths="#path1375,0,1|#circle1319,0,1"
       id="path-effect1387"
       is_visible="true"
       lpeversion="0"
       join="true"
       close="true"
       autoreverse="true" /><inkscape:path-effect
       effect="fill_between_many"
       method="originald"
       linkedpaths="#path1375,0,1"
       id="path-effect1391"
       is_visible="true"
       lpeversion="0"
       join="true"
       close="true"
       autoreverse="true" /><inkscape:path-effect
       effect="fill_between_many"
       method="originald"
       linkedpaths="#circle1319,0,1"
       id="path-effect1395"
       is_visible="true"
       lpeversion="0"
       join="true"
       close="true"
       autoreverse="true" /><inkscape:path-effect
       effect="fill_between_many"
       method="originald"
       linkedpaths="#path1561,0,1|#circle1574,0,1|#path1583,0,1|#path1578,0,1|#path1700,0,1"
       id="path-effect1703"
       is_visible="true"
       lpeversion="0"
       join="true"
       close="true"
       autoreverse="true" /><inkscape:path-effect
       effect="fill_between_many"
       method="originald"
       linkedpaths="#path1578,0,1"
       id="path-effect1707"
       is_visible="true"
       lpeversion="0"
       join="true"
       close="true"
       autoreverse="true" /><inkscape:path-effect
       effect="fill_between_many"
       method="originald"
       linkedpaths="#circle1574,0,1"
       id="path-effect1711"
       is_visible="true"
       lpeversion="0"
       join="true"
       close="true"
       autoreverse="true" /><inkscape:path-effect
       effect="fill_between_many"
       method="originald"
       linkedpaths="#path1700,0,1"
       id="path-effect1715"
       is_visible="true"
       lpeversion="0"
       join="true"
       close="true"
       autoreverse="true" /><inkscape:path-effect
       effect="fill_between_many"
       method="originald"
       linkedpaths="#path1583,0,1"
       id="path-effect1719"
       is_visible="true"
       lpeversion="0"
       join="true"
       close="true"
       autoreverse="true" /><inkscape:path-effect
       effect="fill_between_many"
       method="originald"
       linkedpaths="#path1578,0,1"
       id="path-effect2972"
       is_visible="true"
       lpeversion="0"
       join="true"
       close="true"
       autoreverse="true" /><inkscape:path-effect
       effect="fill_between_many"
       method="originald"
       linkedpaths="#path1397,0,1"
       id="path-effect3151"
       is_visible="true"
       lpeversion="0"
       join="true"
       close="true"
       autoreverse="true" /><inkscape:path-effect
       effect="fill_between_many"
       method="originald"
       linkedpaths="#circle1319,0,1"
       id="path-effect3163"
       is_visible="true"
       lpeversion="0"
       join="true"
       close="true"
       autoreverse="true" /><inkscape:path-effect
       effect="fill_between_many"
       method="originald"
       linkedpaths="#path1717,0,1"
       id="path-effect3187"
       is_visible="true"
       lpeversion="0"
       join="true"
       close="true"
       autoreverse="true" /><inkscape:path-effect
       effect="fill_between_many"
       method="originald"
       linkedpaths="#path1700,0,1"
       id="path-effect3191"
       is_visible="true"
       lpeversion="0"
       join="true"
       close="true"
       autoreverse="true" /><inkscape:path-effect
       effect="fill_between_many"
       method="originald"
       linkedpaths="#path1700,0,1"
       id="path-effect3195"
       is_visible="true"
       lpeversion="0"
       join="true"
       close="true"
       autoreverse="true" /><inkscape:path-effect
       effect="fill_between_many"
       method="originald"
       linkedpaths="#path1700,0,1"
       id="path-effect3202"
       is_visible="true"
       lpeversion="0"
       join="true"
       close="true"
       autoreverse="true" /><inkscape:path-effect
       effect="fill_between_many"
       method="originald"
       linkedpaths="#path1700,0,1"
       id="path-effect3206"
       is_visible="true"
       lpeversion="0"
       join="true"
       close="true"
       autoreverse="true" /><inkscape:path-effect
       effect="fill_between_many"
       method="originald"
       linkedpaths="#path1700,0,1"
       id="path-effect3210"
       is_visible="true"
       lpeversion="0"
       join="true"
       close="true"
       autoreverse="true" /><inkscape:path-effect
       effect="fill_between_many"
       method="originald"
       linkedpaths="#path3212,0,1"
       id="path-effect3214"
       is_visible="true"
       lpeversion="0"
       join="true"
       close="true"
       autoreverse="true" /><inkscape:path-effect
       effect="fill_between_many"
       method="originald"
       linkedpaths="#path1700,0,1"
       id="path-effect3218"
       is_visible="true"
       lpeversion="0"
       join="true"
       close="true"
       autoreverse="true" /><inkscape:path-effect
       effect="fill_between_many"
       method="originald"
       linkedpaths="#path1583,0,1"
       id="path-effect3222"
       join="true"
       close="true"
       autoreverse="true"
       is_visible="true"
       lpeversion="0" /><inkscape:path-effect
       effect="fill_between_many"
       method="originald"
       linkedpaths="#path1583,0,1"
       id="path-effect3234"
       is_visible="true"
       lpeversion="0"
       join="true"
       close="true"
       autoreverse="true" /><inkscape:path-effect
       effect="fill_between_many"
       method="originald"
       linkedpaths="#path3265,0,1"
       id="path-effect3278"
       is_visible="true"
       lpeversion="0"
       join="true"
       close="true"
       autoreverse="true" /><inkscape:path-effect
       effect="fill_between_many"
       method="originald"
       linkedpaths="#path3265,0,1"
       id="path-effect3286"
       is_visible="true"
       lpeversion="0"
       join="true"
       close="true"
       autoreverse="true" /><inkscape:path-effect
       effect="fill_between_many"
       method="originald"
       linkedpaths="#path1578,0,1"
       id="path-effect3349"
       is_visible="true"
       lpeversion="0"
       join="true"
       close="true"
       autoreverse="true" /><inkscape:path-effect
       effect="fill_between_many"
       method="originald"
       linkedpaths="#path3351,0,1"
       id="path-effect3353"
       is_visible="true"
       lpeversion="0"
       join="true"
       close="true"
       autoreverse="true" /><inkscape:path-effect
       effect="fill_between_many"
       method="originald"
       linkedpaths="#path1578,0,1"
       id="path-effect3357"
       is_visible="true"
       lpeversion="0"
       join="true"
       close="true"
       autoreverse="true" /></defs><g
     inkscape:label="Layer 1"
     inkscape:groupmode="layer"
     id="layer1"
     style="display:inline"
     transform="translate(-6.7971307,-1.5276556)"><path
       d="M 0,0"
       id="path1721"
       style="fill:#ffa348"
       inkscape:original-d="M 0,0"
       inkscape:path-effect="#path-effect1719"
       class="UnoptimicedTransforms"
       transform="translate(21.852055,8.9823348)" /><path
       inkscape:original-d="M 0,0"
       inkscape:path-effect="#path-effect1707"
       d="M 0,0"
       id="path1709"
       class="UnoptimicedTransforms"
       style="fill:#99c1f1"
       transform="translate(22.801697,8.9823348)" /><text
       xml:space="preserve"
       style="font-size:1.22222px;font-family:'Atkinson Hyperlegible';-inkscape-font-specification:'Atkinson Hyperlegible, Normal';fill:#000000;fill-opacity:0;fill-rule:nonzero;stroke:#000000;stroke-width:0.111111;stroke-linecap:round;stroke-linejoin:bevel;paint-order:markers stroke fill"
       x="2.8000002"
       y="6.0000005"
       id="text2063"
       class="UnoptimicedTransforms"><tspan
         sodipodi:role="line"
         id="tspan2061"
         style="stroke-width:0.111111"
         x="2.8000002"
         y="6.0000005"></tspan></text><path
       inkscape:original-d="M 0,0"
       inkscape:path-effect="#path-effect3286"
       d="M 0,0"
       id="path3288"
       class="UnoptimicedTransforms"
       transform="translate(6.7971307,8.9823348)" /><g
       id="g3730"
       transform="translate(6,-0.2176651)"><g
         id="g3626"><g
           id="g3593"
           transform="translate(-0.2)"><path
             style="opacity:1;fill:#62a0ea;fill-opacity:1;fill-rule:nonzero;stroke:#000000;stroke-width:0.1;stroke-linecap:round;stroke-linejoin:bevel;stroke-dasharray:none;paint-order:markers stroke fill"
             d="m 4.2,1.9999996 a 3.0000002,3.0000002 0 0 0 -3,3 A 3.0000002,3.0000002 0 0 0 4.2,8 3.0000002,3.0000002 0 0 0 7.2,4.9999996 h -3 z"
             id="path3088" /><path
             id="path3142"
             style="fill:#ffa348;fill-opacity:1;fill-rule:evenodd;stroke:#000000;stroke-width:0.1;stroke-linecap:round;stroke-linejoin:bevel;stroke-dasharray:none;paint-order:markers stroke fill"
             d="m 12,2 v 3 h 3 A 3.0000002,3.0000002 0 0 0 12,2 Z"
             class="UnoptimicedTransforms"
             transform="translate(-7.8)" /></g><text
           xml:space="preserve"
           style="font-size:1.22222px;font-family:'Atkinson Hyperlegible';-inkscape-font-specification:'Atkinson Hyperlegible, Normal';fill:#000000;fill-opacity:1;fill-rule:nonzero;stroke:none;stroke-width:0.111111;stroke-linecap:round;stroke-linejoin:bevel;paint-order:markers stroke fill"
           x="2.2471125"
           y="6.8000002"
           id="text2879"><tspan
             sodipodi:role="line"
             id="tspan2877"
             style="fill:#000000;fill-opacity:1;stroke:none;stroke-width:0.111111"
             x="2.2471125"
             y="6.8000002">A</tspan></text><text
           xml:space="preserve"
           style="font-size:1.22222px;font-family:'Atkinson Hyperlegible';-inkscape-font-specification:'Atkinson Hyperlegible, Normal';fill:#000000;fill-opacity:1;fill-rule:nonzero;stroke:none;stroke-width:0.111111;stroke-linecap:round;stroke-linejoin:bevel;paint-order:markers stroke fill"
           x="4.9071112"
           y="4"
           id="text2883"><tspan
             sodipodi:role="line"
             id="tspan2881"
             style="fill:#000000;fill-opacity:1;stroke:none;stroke-width:0.111111"
             x="4.9071112"
             y="4">B</tspan></text></g><text
         xml:space="preserve"
         style="font-size:1.22222px;font-family:'Atkinson Hyperlegible';-inkscape-font-specification:'Atkinson Hyperlegible, Normal';opacity:1;fill:#99c1f1;fill-opacity:1;fill-rule:nonzero;stroke:#000000;stroke-width:0.1;stroke-linecap:round;stroke-linejoin:bevel;stroke-dasharray:none;paint-order:markers stroke fill"
         x="2.2186136"
         y="9.1853333"
         id="text3589"><tspan
           sodipodi:role="line"
           id="tspan3587"
           style="fill:#000000;stroke:none;stroke-width:0.1"
           x="2.2186136"
           y="9.1853333">A vs. B</tspan></text></g><g
       id="g3749"
       transform="translate(8.1528875,-0.2176651)"><g
         id="g3642"><path
           inkscape:original-d="M 0,0"
           inkscape:path-effect="#path-effect1395"
           d="m 5,8.889323 a 3.0000002,3.0000002 0 0 0 -0.055583,-5.697e-4 3.0000002,3.0000002 0 0 0 -3,2.9999997 3.0000002,3.0000002 0 0 0 3,3 A 3.0000002,3.0000002 0 0 0 5,14.888021 Z"
           id="path1397"
           style="fill:#3584e4;stroke-width:0.1;stroke-dasharray:none"
           transform="translate(6,-6.944336)"
           class="UnoptimicedTransforms" /><path
           inkscape:original-d="M 0,0"
           inkscape:path-effect="#path-effect3163"
           d="m 11,1.944987 a 3.0000002,3.0000002 0 0 0 -0.05558,-5.697e-4 3.0000002,3.0000002 0 0 0 -3,2.9999997 3.0000002,3.0000002 0 0 0 3,3 A 3.0000002,3.0000002 0 0 0 11,7.943685 Z"
           id="path3165"
           class="UnoptimicedTransforms"
           style="fill:#62a0ea;stroke:#000000;stroke-width:0.1;stroke-dasharray:none" /><path
           inkscape:original-d="M 0,0"
           inkscape:path-effect="#path-effect1391"
           d="M 7.9437663,11.944336 H 5 v 2.943685 a 3.0000002,3.0000002 0 0 0 2.9437663,-2.943685 z"
           id="path1393"
           class="UnoptimicedTransforms"
           style="fill:#62a0ea"
           transform="translate(6,-6.944336)" /><path
           d="m 5,8.889323 v 3.055013 h 2.9437663 a 3.0000002,3.0000002 0 0 0 6.51e-4,-0.05558 A 3.0000002,3.0000002 0 0 0 5,8.889323 Z"
           id="path1385"
           style="fill:#ffa348;fill-opacity:1"
           transform="translate(6,-6.944336)"
           inkscape:original-d="M 0,0"
           inkscape:path-effect="#path-effect1383"
           class="UnoptimicedTransforms" /><g
           id="g3602"
           transform="translate(0,-0.055664)"><path
             style="fill:#62a0ea;fill-opacity:1;fill-rule:evenodd;stroke:#000000;stroke-width:0.112;stroke-linecap:round;stroke-linejoin:bevel;stroke-dasharray:none;paint-order:markers stroke fill"
             d="m 5,8.944987 a 3.0000002,3.0000002 0 0 0 -0.055583,-5.697e-4 3.0000002,3.0000002 0 0 0 -3,2.9999997 3.0000002,3.0000002 0 0 0 3,3 A 3.0000002,3.0000002 0 0 0 5,14.943685 Z"
             transform="translate(6,-6.944336)"
             id="circle1319"
             class="UnoptimicedTransforms" /><path
             id="path1375"
             style="fill:#99c1f1;fill-opacity:1;fill-rule:evenodd;stroke:#000000;stroke-width:0.1;stroke-linecap:round;stroke-linejoin:bevel;stroke-dasharray:none;paint-order:markers stroke fill"
             d="M 7.9437663,12 H 5 v 2.943685 A 3.0000002,3.0000002 0 0 0 7.9437663,12 Z"
             transform="translate(6,-6.944336)"
             class="UnoptimicedTransforms" /><path
             id="path1380"
             style="fill:#ffa348;fill-opacity:1;fill-rule:evenodd;stroke:#000000;stroke-width:0.1;stroke-linecap:round;stroke-linejoin:bevel;stroke-dasharray:none;paint-order:markers stroke fill"
             d="M 5,8.944987 V 12 H 7.9437663 A 3.0000002,3.0000002 0 0 0 7.9444173,11.94442 3.0000002,3.0000002 0 0 0 5,8.944987 Z"
             transform="translate(6,-6.944336)"
             class="UnoptimicedTransforms" /></g><text
           xml:space="preserve"
           style="font-size:1.22222px;font-family:'Atkinson Hyperlegible';-inkscape-font-specification:'Atkinson Hyperlegible, Normal';fill:#000000;fill-opacity:1;fill-rule:nonzero;stroke:none;stroke-width:0.111111;stroke-linecap:round;stroke-linejoin:bevel;paint-order:markers stroke fill"
           x="9.0471125"
           y="5.4000001"
           id="text2937"><tspan
             sodipodi:role="line"
             id="tspan2935"
             style="fill:#000000;fill-opacity:1;stroke:none;stroke-width:0.111111"
             x="9.0471125"
             y="5.4000001">A</tspan></text><text
           xml:space="preserve"
           style="font-size:1.22222px;font-family:'Atkinson Hyperlegible';-inkscape-font-specification:'Atkinson Hyperlegible, Normal';fill:#000000;fill-opacity:1;fill-rule:nonzero;stroke:none;stroke-width:0.111111;stroke-linecap:round;stroke-linejoin:bevel;paint-order:markers stroke fill"
           x="11.907111"
           y="6.816443"
           id="text2941"><tspan
             sodipodi:role="line"
             id="tspan2939"
             style="fill:#000000;fill-opacity:1;stroke:none;stroke-width:0.111111"
             x="11.907111"
             y="6.816443">B</tspan></text><text
           xml:space="preserve"
           style="font-size:1.22222px;font-family:'Atkinson Hyperlegible';-inkscape-font-specification:'Atkinson Hyperlegible, Normal';fill:#000000;fill-opacity:1;fill-rule:nonzero;stroke:none;stroke-width:0.111111;stroke-linecap:round;stroke-linejoin:bevel;paint-order:markers stroke fill"
           x="11.938889"
           y="3.9853334"
           id="text2945"><tspan
             sodipodi:role="line"
             id="tspan2943"
             style="stroke-width:0.111111"
             x="11.938889"
             y="3.9853334">C</tspan></text></g><text
         xml:space="preserve"
         style="font-size:1.22222px;font-family:'Atkinson Hyperlegible';-inkscape-font-specification:'Atkinson Hyperlegible, Normal';opacity:1;fill:#99c1f1;fill-opacity:1;fill-rule:nonzero;stroke:#000000;stroke-width:0.1;stroke-linecap:round;stroke-linejoin:bevel;stroke-dasharray:none;paint-order:markers stroke fill"
         x="8.0490332"
         y="9.1853333"
         id="text3606"><tspan
           sodipodi:role="line"
           id="tspan3604"
           style="fill:#000000;stroke:none;stroke-width:0.1"
           x="8.0490332"
           y="9.1853333">A + B vs. C</tspan></text></g><g
       id="g3768"
       transform="translate(10.152888,-0.2176651)"><g
         id="g3718"><g
           id="g3617"
           transform="translate(-0.2)"><path
             style="fill:#ffbe6f;fill-opacity:1;fill-rule:evenodd;stroke:#000000;stroke-width:0.111111;stroke-linecap:round;stroke-linejoin:bevel;paint-order:markers stroke fill"
             d="M 5,2 V 5 L 7.6032715,3.5093587 a 3.0000002,3.0000002 0 0 0 -0.031087,-0.053304 3.0000002,3.0000002 0 0 0 -0.00179,-0.00301 3.0000002,3.0000002 0 0 0 -0.041016,-0.066162 3.0000002,3.0000002 0 0 0 -0.00309,-0.0048 3.0000002,3.0000002 0 0 0 -0.041829,-0.063558 3.0000002,3.0000002 0 0 0 -0.00293,-0.00431 3.0000002,3.0000002 0 0 0 -0.043701,-0.062663 3.0000002,3.0000002 0 0 0 -0.00212,-0.00285 3.0000002,3.0000002 0 0 0 -0.046712,-0.063232 3.0000002,3.0000002 0 0 0 -0.00122,-0.00163 3.0000002,3.0000002 0 0 0 -0.047038,-0.06014 3.0000002,3.0000002 0 0 0 -0.00472,-0.00594 3.0000002,3.0000002 0 0 0 -0.048828,-0.059082 3.0000002,3.0000002 0 0 0 -7.325e-4,-8.138e-4 3.0000002,3.0000002 0 0 0 -0.052246,-0.059896 3.0000002,3.0000002 0 0 0 -0.00195,-0.0022 3.0000002,3.0000002 0 0 0 -0.053792,-0.058268 3.0000002,3.0000002 0 0 0 -0.00106,-0.00122 3.0000002,3.0000002 0 0 0 -0.056071,-0.057617 3.0000002,3.0000002 0 0 0 -0.057617,-0.056071 3.0000002,3.0000002 0 0 0 -0.00122,-0.00106 3.0000002,3.0000002 0 0 0 -0.058268,-0.053792 3.0000002,3.0000002 0 0 0 -0.0022,-0.00195 3.0000002,3.0000002 0 0 0 -0.059896,-0.052246 3.0000002,3.0000002 0 0 0 -8.138e-4,-7.325e-4 3.0000002,3.0000002 0 0 0 -0.05721,-0.047282 3.0000002,3.0000002 0 0 0 -0.00863,-0.00692 3.0000002,3.0000002 0 0 0 -0.059326,-0.046387 3.0000002,3.0000002 0 0 0 -0.00163,-0.00122 3.0000002,3.0000002 0 0 0 -0.063232,-0.046712 3.0000002,3.0000002 0 0 0 -0.00285,-0.00212 3.0000002,3.0000002 0 0 0 -0.062663,-0.043701 3.0000002,3.0000002 0 0 0 -0.00431,-0.00293 3.0000002,3.0000002 0 0 0 -0.063558,-0.041829 3.0000002,3.0000002 0 0 0 -0.0048,-0.00309 3.0000002,3.0000002 0 0 0 -0.066162,-0.041016 3.0000002,3.0000002 0 0 0 -0.00301,-0.00179 3.0000002,3.0000002 0 0 0 -0.066732,-0.0389 3.0000002,3.0000002 0 0 0 -0.00146,-8.138e-4 3.0000002,3.0000002 0 0 0 -0.067871,-0.037191 3.0000002,3.0000002 0 0 0 -0.00724,-0.00382 3.0000002,3.0000002 0 0 0 -0.067708,-0.034668 3.0000002,3.0000002 0 0 0 -0.071045,-0.034098 3.0000002,3.0000002 0 0 0 -0.00431,-0.00203 3.0000002,3.0000002 0 0 0 -0.070638,-0.031494 3.0000002,3.0000002 0 0 0 -0.0035,-0.00146 3.0000002,3.0000002 0 0 0 -0.070231,-0.029134 3.0000002,3.0000002 0 0 0 -0.00391,-0.00155 3.0000002,3.0000002 0 0 0 -0.072347,-0.027751 3.0000002,3.0000002 0 0 0 -0.00545,-0.00195 3.0000002,3.0000002 0 0 0 -0.073568,-0.025879 3.0000002,3.0000002 0 0 0 -0.077393,-0.024902 3.0000002,3.0000002 0 0 0 -0.07666,-0.02238 3.0000002,3.0000002 0 0 0 -0.00285,-8.138e-4 3.0000002,3.0000002 0 0 0 -0.076986,-0.020264 3.0000002,3.0000002 0 0 0 -0.079101,-0.018555 3.0000002,3.0000002 0 0 0 -0.074626,-0.015381 3.0000002,3.0000002 0 0 0 -0.012044,-0.00228 3.0000002,3.0000002 0 0 0 -0.072917,-0.012939 3.0000002,3.0000002 0 0 0 -0.073731,-0.011149 3.0000002,3.0000002 0 0 0 -0.012695,-0.00171 3.0000002,3.0000002 0 0 0 -0.00228,-3.255e-4 3.0000002,3.0000002 0 0 0 -0.067464,-0.00822 3.0000002,3.0000002 0 0 0 -0.010417,-0.00114 3.0000002,3.0000002 0 0 0 -0.074219,-0.007 3.0000002,3.0000002 0 0 0 -0.00106,-8.14e-5 3.0000002,3.0000002 0 0 0 -0.077555,-0.00529 3.0000002,3.0000002 0 0 0 -0.00627,-3.255e-4 3.0000002,3.0000002 0 0 0 -0.078451,-0.00317 A 3.0000002,3.0000002 0 0 0 5,2 Z"
             id="path3263"
             class="UnoptimicedTransforms"
             transform="translate(13.2)" /><path
             id="path3361"
             style="fill:#99c1f1;fill-opacity:1;fill-rule:evenodd;stroke:#000000;stroke-width:0.111111;stroke-linecap:round;stroke-linejoin:bevel;paint-order:markers stroke fill"
             d="M 5,5 2.4073893,3.490804 A 3.0000002,3.0000002 0 0 0 2,5 3.0000002,3.0000002 0 0 0 5,8 Z"
             transform="matrix(-1,0,0,1,23.2,0)"
             class="UnoptimicedTransforms" /><path
             style="fill:#ffa348;fill-opacity:1;fill-rule:evenodd;stroke:#000000;stroke-width:0.111111;stroke-linecap:round;stroke-linejoin:bevel;paint-order:markers stroke fill"
             d="M 5,2 V 5 L 7.6032715,3.5093587 a 3.0000002,3.0000002 0 0 0 -0.031087,-0.053304 3.0000002,3.0000002 0 0 0 -0.00179,-0.00301 3.0000002,3.0000002 0 0 0 -0.041016,-0.066162 3.0000002,3.0000002 0 0 0 -0.00309,-0.0048 3.0000002,3.0000002 0 0 0 -0.041829,-0.063558 3.0000002,3.0000002 0 0 0 -0.00293,-0.00431 3.0000002,3.0000002 0 0 0 -0.043701,-0.062663 3.0000002,3.0000002 0 0 0 -0.00212,-0.00285 3.0000002,3.0000002 0 0 0 -0.046712,-0.063232 3.0000002,3.0000002 0 0 0 -0.00122,-0.00163 3.0000002,3.0000002 0 0 0 -0.047038,-0.06014 3.0000002,3.0000002 0 0 0 -0.00472,-0.00594 3.0000002,3.0000002 0 0 0 -0.048828,-0.059082 3.0000002,3.0000002 0 0 0 -7.325e-4,-8.138e-4 3.0000002,3.0000002 0 0 0 -0.052246,-0.059896 3.0000002,3.0000002 0 0 0 -0.00195,-0.0022 3.0000002,3.0000002 0 0 0 -0.053792,-0.058268 3.0000002,3.0000002 0 0 0 -0.00106,-0.00122 3.0000002,3.0000002 0 0 0 -0.056071,-0.057617 3.0000002,3.0000002 0 0 0 -0.057617,-0.056071 3.0000002,3.0000002 0 0 0 -0.00122,-0.00106 3.0000002,3.0000002 0 0 0 -0.058268,-0.053792 3.0000002,3.0000002 0 0 0 -0.0022,-0.00195 3.0000002,3.0000002 0 0 0 -0.059896,-0.052246 3.0000002,3.0000002 0 0 0 -8.138e-4,-7.325e-4 3.0000002,3.0000002 0 0 0 -0.05721,-0.047282 3.0000002,3.0000002 0 0 0 -0.00863,-0.00692 3.0000002,3.0000002 0 0 0 -0.059326,-0.046387 3.0000002,3.0000002 0 0 0 -0.00163,-0.00122 3.0000002,3.0000002 0 0 0 -0.063232,-0.046712 3.0000002,3.0000002 0 0 0 -0.00285,-0.00212 3.0000002,3.0000002 0 0 0 -0.062663,-0.043701 3.0000002,3.0000002 0 0 0 -0.00431,-0.00293 3.0000002,3.0000002 0 0 0 -0.063558,-0.041829 3.0000002,3.0000002 0 0 0 -0.0048,-0.00309 3.0000002,3.0000002 0 0 0 -0.066162,-0.041016 3.0000002,3.0000002 0 0 0 -0.00301,-0.00179 3.0000002,3.0000002 0 0 0 -0.066732,-0.0389 3.0000002,3.0000002 0 0 0 -0.00146,-8.138e-4 3.0000002,3.0000002 0 0 0 -0.067871,-0.037191 3.0000002,3.0000002 0 0 0 -0.00724,-0.00382 3.0000002,3.0000002 0 0 0 -0.067708,-0.034668 3.0000002,3.0000002 0 0 0 -0.071045,-0.034098 3.0000002,3.0000002 0 0 0 -0.00431,-0.00203 3.0000002,3.0000002 0 0 0 -0.070638,-0.031494 3.0000002,3.0000002 0 0 0 -0.0035,-0.00146 3.0000002,3.0000002 0 0 0 -0.070231,-0.029134 3.0000002,3.0000002 0 0 0 -0.00391,-0.00155 3.0000002,3.0000002 0 0 0 -0.072347,-0.027751 3.0000002,3.0000002 0 0 0 -0.00545,-0.00195 3.0000002,3.0000002 0 0 0 -0.073568,-0.025879 3.0000002,3.0000002 0 0 0 -0.077393,-0.024902 3.0000002,3.0000002 0 0 0 -0.07666,-0.02238 3.0000002,3.0000002 0 0 0 -0.00285,-8.138e-4 3.0000002,3.0000002 0 0 0 -0.076986,-0.020264 3.0000002,3.0000002 0 0 0 -0.079101,-0.018555 3.0000002,3.0000002 0 0 0 -0.074626,-0.015381 3.0000002,3.0000002 0 0 0 -0.012044,-0.00228 3.0000002,3.0000002 0 0 0 -0.072917,-0.012939 3.0000002,3.0000002 0 0 0 -0.073731,-0.011149 3.0000002,3.0000002 0 0 0 -0.012695,-0.00171 3.0000002,3.0000002 0 0 0 -0.00228,-3.255e-4 3.0000002,3.0000002 0 0 0 -0.067464,-0.00822 3.0000002,3.0000002 0 0 0 -0.010417,-0.00114 3.0000002,3.0000002 0 0 0 -0.074219,-0.007 3.0000002,3.0000002 0 0 0 -0.00106,-8.14e-5 3.0000002,3.0000002 0 0 0 -0.077555,-0.00529 3.0000002,3.0000002 0 0 0 -0.00627,-3.255e-4 3.0000002,3.0000002 0 0 0 -0.078451,-0.00317 A 3.0000002,3.0000002 0 0 0 5,2 Z"
             transform="matrix(-1,0,0,1,23.2,0)"
             id="path3365"
             class="UnoptimicedTransforms" /><path
             id="path3367"
             style="fill:#62a0ea;fill-opacity:1;fill-rule:evenodd;stroke:#000000;stroke-width:0.111111;stroke-linecap:round;stroke-linejoin:bevel;paint-order:markers stroke fill"
             d="M 5,5 2.4073893,3.490804 A 3.0000002,3.0000002 0 0 0 2,5 3.0000002,3.0000002 0 0 0 5,8 Z"
             transform="translate(13.2)"
             class="UnoptimicedTransforms" /></g><path
           inkscape:original-d="M 0,0"
           inkscape:path-effect="#path-effect1711"
           d="M 0,0"
           id="path1713"
           class="UnoptimicedTransforms"
           style="display:inline;fill:#62a0ea"
           transform="translate(16.098364,1.7453207)" /><text
           xml:space="preserve"
           style="font-size:1.22222px;font-family:'Atkinson Hyperlegible';-inkscape-font-specification:'Atkinson Hyperlegible, Normal';fill:#000000;fill-opacity:1;fill-rule:nonzero;stroke:none;stroke-width:0.111111;stroke-linecap:round;stroke-linejoin:bevel;paint-order:markers stroke fill"
           x="16.247112"
           y="5.8176651"
           id="text2978"><tspan
             sodipodi:role="line"
             id="tspan2976"
             style="fill:#000000;fill-opacity:1;stroke:none;stroke-width:0.111111"
             x="16.247112"
             y="5.8176651">A</tspan></text><text
           xml:space="preserve"
           style="font-size:1.22222px;font-family:'Atkinson Hyperlegible';-inkscape-font-specification:'Atkinson Hyperlegible, Normal';fill:#000000;fill-opacity:1;fill-rule:nonzero;stroke:none;stroke-width:0.111111;stroke-linecap:round;stroke-linejoin:bevel;paint-order:markers stroke fill"
           x="18.538889"
           y="3.7853334"
           id="text2986"><tspan
             sodipodi:role="line"
             id="tspan2984"
             style="stroke-width:0.111111"
             x="18.538889"
             y="3.7853334">C</tspan></text><text
           xml:space="preserve"
           style="font-size:1.22222px;font-family:'Atkinson Hyperlegible';-inkscape-font-specification:'Atkinson Hyperlegible, Normal';fill:#000000;fill-opacity:1;fill-rule:nonzero;stroke:none;stroke-width:0.111111;stroke-linecap:round;stroke-linejoin:bevel;paint-order:markers stroke fill"
           x="16.68989"
           y="3.816443"
           id="text2982"><tspan
             sodipodi:role="line"
             id="tspan2980"
             style="fill:#000000;fill-opacity:1;stroke:none;stroke-width:0.111111"
             x="16.68989"
             y="3.816443">B</tspan></text><text
           xml:space="preserve"
           style="font-size:1.22222px;font-family:'Atkinson Hyperlegible';-inkscape-font-specification:'Atkinson Hyperlegible, Normal';fill:#000000;fill-opacity:1;fill-rule:nonzero;stroke:none;stroke-width:0.111111;stroke-linecap:round;stroke-linejoin:bevel;paint-order:markers stroke fill"
           x="18.907112"
           y="5.816443"
           id="text3377"><tspan
             sodipodi:role="line"
             id="tspan3375"
             style="stroke-width:0.111111"
             x="18.907112"
             y="5.816443">D</tspan></text></g><text
         xml:space="preserve"
         style="font-size:1.22222px;font-family:'Atkinson Hyperlegible';-inkscape-font-specification:'Atkinson Hyperlegible, Normal';opacity:1;fill:#000000;fill-opacity:1;fill-rule:nonzero;stroke:none;stroke-width:0.1;stroke-linecap:round;stroke-linejoin:bevel;stroke-dasharray:none;paint-order:markers stroke fill"
         x="13.986228"
         y="9.1853333"
         id="text3610"><tspan
           sodipodi:role="line"
           id="tspan3608"
           style="stroke-width:0.1"
           x="13.986228"
           y="9.1853333">A + D vs. B + C</tspan></text></g></g></svg>
